Coordinates
version=1
nRows=12
nColumns=28
inDegrees=yes

Units are S.I. units (second, meters, Newtons, ...)
Angles are in degrees.

endheader
time	pelvis_tilt	pelvis_list	pelvis_rotation	pelvis_tx	pelvis_ty	pelvis_tz	hip_flexion_r	hip_adduction_r	hip_rotation_r	knee_angle_r	ankle_angle_r	subtalar_angle_r	mtp_angle_r	hip_flexion_l	hip_adduction_l	hip_rotation_l	knee_angle_l	socket_flexion	socket_adduction	socket_rotation	socket_tx	socket_ty	socket_tz	foot_flex	lumbar_extension	lumbar_bending	lumbar_rotation
      0.63333333	      2.26366459	     -4.13586392	      6.07161609	      0.00045081	      0.99057259	      0.26771123	     21.20119927	      5.14867370	     -7.98439509	     -4.40034183	     11.25971778	    -21.09534664	    -15.69006020	    -26.62908449	     -8.28849725	     -6.73004714	     -2.86831143	      1.40798202	      1.56082419	     22.91831181	     -0.00897400	     -0.00058554	     -0.01364665	      8.17331561	    -12.70231920	      4.64943368	     -2.07425575
      0.63750000	      2.26374952	     -4.13595670	      6.07158754	      0.00045248	      0.99057186	      0.26770815	     21.20127182	      5.14884038	     -7.98426458	     -4.40027321	     11.25978779	    -21.09525878	    -15.68974522	    -26.62894832	     -8.28848551	     -6.72993273	     -2.86824562	      1.40796483	      1.56078421	     22.91831181	     -0.00897584	     -0.00058444	     -0.01364565	      8.17331830	    -12.70221725	      4.64947009	     -2.07415093
      0.64166667	      2.29685695	     -4.25900206	      6.23132077	      0.00682655	      0.98977157	      0.26766589	     21.31649535	      5.27236581	     -7.66802297	     -5.11118480	     11.01847738	    -21.04189928	    -15.56900440	    -26.76610079	     -8.39087095	     -6.60154694	     -3.06978416	      1.66983461	      1.44905763	     22.91831181	     -0.00774485	     -0.00054246	     -0.01269840	      8.11450216	    -12.67682296	      4.92634922	     -2.03537061
      0.64583333	      2.32437923	     -4.41019917	      6.05719199	      0.01317602	      0.98876591	      0.26836313	     21.80709728	      5.50677683	     -7.72316147	     -6.50688321	     10.44045395	    -21.20617589	    -15.05814988	    -26.96285831	     -8.54912296	     -7.01998801	     -3.29241575	      1.87071971	      1.52179891	     22.91831181	     -0.00691433	     -0.00044606	     -0.01353514	      8.02648855	    -12.65222103	      5.11625984	     -2.00560207
      0.65000000	      2.36039774	     -4.55574636	      6.19873415	      0.01958435	      0.98805354	      0.26839089	     21.92130525	      5.66467589	     -7.39901691	     -7.24480358	     10.16736910	    -21.15487671	    -14.89866538	    -27.06615613	     -8.65184279	     -6.87856083	     -3.52175266	      2.16530741	      1.39958517	     22.91831181	     -0.00548034	     -0.00038627	     -0.01242163	      7.92737593	    -12.62478122	      5.41628302	     -1.95674972
      0.65416667	      2.37628781	     -4.72210897	      5.99235886	      0.02595712	      0.98707390	      0.26917152	     22.43222152	      5.91783844	     -7.47832646	     -8.67118161	      9.47822585	    -21.33938566	    -14.27257430	    -27.18107938	     -8.82958567	     -7.35983868	     -3.80411313	      2.41247766	      1.49601513	     22.91831181	     -0.00427015	     -0.00029950	     -0.01356521	      7.77250137	    -12.58578104	      5.60973401	     -1.90252543
      0.65833333	      1.62692352	     -4.91477115	      5.83383294	      0.03277807	      0.98504205	      0.26984009	     23.56780663	      6.06927134	     -7.39379444	     -9.65566686	      6.70567455	    -22.15618196	     -4.67998619	    -26.19137428	     -9.02524582	     -7.59568337	     -4.19046963	      2.91873219	      1.64652323	     22.91831181	     -0.00070723	     -0.00028427	     -0.01546797	      7.81229910	    -11.59383247	      5.71738685	     -1.09192357
      0.66250000	      1.79784109	     -5.05087762	      5.86461411	      0.03926710	      0.98462500	      0.27001605	     23.66195145	      6.24011101	     -7.34124700	    -10.67481458	      6.38266629	    -22.28088447	     -4.63115734	    -26.51068984	     -9.01172793	     -7.47141721	     -4.38130474	      3.20558244	      1.47798212	     22.91831181	      0.00035690	     -0.00018812	     -0.01343374	      7.41245040	    -11.70078914	      6.02423764	     -1.27590289
      0.66666667	      2.01029044	     -5.17140848	      5.84481082	      0.04568696	      0.98420957	      0.27042318	     23.80569734	      6.39926241	     -7.39731583	    -11.87340214	      5.89850940	    -22.41209700	     -4.48874435	    -26.75656176	     -9.11254067	     -7.77251574	     -4.69717825	      3.55250876	      1.43302103	     22.91831181	      0.00178770	      0.00005532	     -0.01333624	      7.18573888	    -11.89559417	      6.24728369	     -1.46529361
      0.67083333	      2.16836615	     -5.34206636	      5.80903529	      0.05214091	      0.98380916	      0.27085288	     23.92985737	      6.62649501	     -7.32195663	    -12.92538756	      5.46764490	    -22.46383293	     -4.26402587	    -26.87636809	     -9.24360440	     -7.96217312	     -5.05496606	      3.93259041	      1.40658744	     22.91831181	      0.00371859	      0.00031104	     -0.01309421	      6.93151297	    -12.00757908	      6.53437354	     -1.50659796
      0.67500000	      2.29687446	     -5.53241982	      5.75558170	      0.05861266	      0.98340318	      0.27135183	     24.07906114	      6.87934314	     -7.23549188	    -13.96767527	      5.04770254	    -22.51214616	     -4.00918430	    -26.92379081	     -9.39913349	     -8.16193288	     -5.44708557	      4.34143704	      1.38854154	     22.89901776	      0.00582676	      0.00056669	     -0.01304751	      6.64557907	    -12.08912022	      6.82830831	     -1.47943638
      0.67916667	      2.38871062	     -5.73521415	      5.65768257	      0.06515099	      0.98296610	      0.27194265	     24.27477496	      7.14886425	     -7.16996758	    -15.04435779	      4.60952288	    -22.58731297	     -3.64550701	    -26.92385864	     -9.58366230	     -8.40782482	     -5.86034632	      4.75058476	      1.42215326	     22.91831181	      0.00790404	      0.00086103	     -0.01331015	      6.34177380	    -12.11335502	      7.12084851	     -1.39436384
